<?xml version="1.0" encoding="UTF-8"?>
<svg width="700pt" height="700pt" version="1.1" viewBox="0 0 700 700" xmlns="http://www.w3.org/2000/svg" xmlns:xlink="http://www.w3.org/1999/xlink">
 <defs>
  <symbol id="l" overflow="visible">
   <path d="m29.312-1.75c-1.5117 0.78125-3.0898 1.3711-4.7344 1.7656-1.6367 0.40625-3.3398 0.60938-5.1094 0.60938-5.3125 0-9.5273-1.4844-12.641-4.4531-3.1055-2.9688-4.6562-7-4.6562-12.094s1.5508-9.125 4.6562-12.094c3.1133-2.9688 7.3281-4.4531 12.641-4.4531 1.7695 0 3.4727 0.19922 5.1094 0.59375 1.6445 0.39844 3.2227 0.99219 4.7344 1.7812v6.5938c-1.5312-1.0391-3.0391-1.8008-4.5156-2.2812-1.4805-0.48828-3.0391-0.73438-4.6719-0.73438-2.9375 0-5.2461 0.94531-6.9219 2.8281-1.6797 1.875-2.5156 4.4648-2.5156 7.7656 0 3.293 0.83594 5.8828 2.5156 7.7656 1.6758 1.875 3.9844 2.8125 6.9219 2.8125 1.6328 0 3.1914-0.23828 4.6719-0.71875 1.4766-0.48828 2.9844-1.2539 4.5156-2.2969z"/>
  </symbol>
  <symbol id="d" overflow="visible">
   <path d="m21.453-17.406c-0.67969-0.3125-1.3516-0.53906-2.0156-0.6875-0.65625-0.15625-1.3203-0.23438-1.9844-0.23438-1.9688 0-3.4844 0.63281-4.5469 1.8906-1.0547 1.2617-1.5781 3.0703-1.5781 5.4219v11.016h-7.6562v-23.922h7.6562v3.9219c0.97656-1.5625 2.1016-2.7031 3.375-3.4219 1.2812-0.71875 2.8125-1.0781 4.5938-1.0781 0.25 0 0.52344 0.011719 0.82812 0.03125 0.30078 0.023438 0.73438 0.070312 1.2969 0.14062z"/>
  </symbol>
  <symbol id="c" overflow="visible">
   <path d="m27.562-12.031v2.1875h-17.891c0.1875 1.793 0.83203 3.1367 1.9375 4.0312 1.1133 0.89844 2.6719 1.3438 4.6719 1.3438 1.6016 0 3.25-0.23438 4.9375-0.70312 1.6875-0.47656 3.4219-1.2031 5.2031-2.1719v5.8906c-1.8047 0.6875-3.6094 1.2031-5.4219 1.5469-1.8125 0.35156-3.6211 0.53125-5.4219 0.53125-4.3359 0-7.7031-1.0977-10.109-3.2969-2.3984-2.207-3.5938-5.2969-3.5938-9.2656 0-3.9062 1.1758-6.9727 3.5312-9.2031 2.3633-2.2383 5.6094-3.3594 9.7344-3.3594 3.7578 0 6.7695 1.1367 9.0312 3.4062 2.2578 2.2617 3.3906 5.2812 3.3906 9.0625zm-7.8594-2.5312c0-1.457-0.42969-2.6289-1.2812-3.5156-0.84375-0.89453-1.9492-1.3438-3.3125-1.3438-1.4922 0-2.6992 0.41797-3.625 1.25-0.91797 0.83594-1.4922 2.0391-1.7188 3.6094z"/>
  </symbol>
  <symbol id="a" overflow="visible">
   <path d="m14.391-10.766c-1.5938 0-2.793 0.27344-3.5938 0.8125-0.80469 0.54297-1.2031 1.3398-1.2031 2.3906 0 0.96875 0.32031 1.7305 0.96875 2.2812 0.64453 0.54297 1.5469 0.8125 2.7031 0.8125 1.4375 0 2.6445-0.51562 3.625-1.5469 0.98828-1.0312 1.4844-2.3203 1.4844-3.875v-0.875zm11.688-2.8906v13.656h-7.7031v-3.5469c-1.0312 1.4492-2.1875 2.5078-3.4688 3.1719s-2.8398 1-4.6719 1c-2.4805 0-4.4961-0.72266-6.0469-2.1719-1.543-1.4453-2.3125-3.3203-2.3125-5.625 0-2.8125 0.96094-4.8672 2.8906-6.1719 1.9375-1.3125 4.9688-1.9688 9.0938-1.9688h4.5156v-0.60938c0-1.207-0.48047-2.0938-1.4375-2.6562-0.94922-0.5625-2.4375-0.84375-4.4688-0.84375-1.6367 0-3.1562 0.16797-4.5625 0.5-1.4062 0.32422-2.7188 0.8125-3.9375 1.4688v-5.8281c1.6445-0.40625 3.2891-0.70703 4.9375-0.90625 1.6562-0.20703 3.3047-0.3125 4.9531-0.3125 4.3203 0 7.4375 0.85547 9.3438 2.5625 1.9141 1.6992 2.875 4.4609 2.875 8.2812z"/>
  </symbol>
  <symbol id="b" overflow="visible">
   <path d="m12.031-30.719v6.7969h7.875v5.4688h-7.875v10.141c0 1.1172 0.21875 1.8711 0.65625 2.2656 0.4375 0.38672 1.3125 0.57812 2.625 0.57812h3.9375v5.4688h-6.5625c-3.0234 0-5.1641-0.62891-6.4219-1.8906-1.2617-1.2578-1.8906-3.3984-1.8906-6.4219v-10.141h-3.7969v-5.4688h3.7969v-6.7969z"/>
  </symbol>
  <symbol id="i" overflow="visible">
   <path d="m19.953-20.422v-12.812h7.6875v33.234h-7.6875v-3.4531c-1.0547 1.4062-2.2148 2.4375-3.4844 3.0938-1.2734 0.65625-2.7422 0.98438-4.4062 0.98438-2.9492 0-5.3711-1.1719-7.2656-3.5156-1.8867-2.3438-2.8281-5.3594-2.8281-9.0469s0.94141-6.7031 2.8281-9.0469c1.8945-2.3438 4.3164-3.5156 7.2656-3.5156 1.6562 0 3.1172 0.33594 4.3906 1 1.2812 0.65625 2.4453 1.6836 3.5 3.0781zm-5.0469 15.484c1.6445 0 2.8945-0.59766 3.75-1.7969 0.86328-1.1953 1.2969-2.9297 1.2969-5.2031 0-2.2812-0.43359-4.0195-1.2969-5.2188-0.85547-1.1953-2.1055-1.7969-3.75-1.7969-1.625 0-2.8711 0.60156-3.7344 1.7969-0.85547 1.1992-1.2812 2.9375-1.2812 5.2188 0 2.2734 0.42578 4.0078 1.2812 5.2031 0.86328 1.1992 2.1094 1.7969 3.7344 1.7969z"/>
  </symbol>
  <symbol id="h" overflow="visible">
   <path d="m16.406-4.9375c1.6328 0 2.8828-0.59766 3.75-1.7969 0.86328-1.1953 1.2969-2.9297 1.2969-5.2031 0-2.2812-0.43359-4.0195-1.2969-5.2188-0.86719-1.1953-2.1172-1.7969-3.75-1.7969-1.6367 0-2.8906 0.60547-3.7656 1.8125-0.875 1.1992-1.3125 2.9336-1.3125 5.2031 0 2.2617 0.4375 3.9961 1.3125 5.2031 0.875 1.1992 2.1289 1.7969 3.7656 1.7969zm-5.0781-15.484c1.0508-1.3945 2.2188-2.4219 3.5-3.0781 1.2812-0.66406 2.7539-1 4.4219-1 2.9453 0 5.3672 1.1719 7.2656 3.5156 1.8945 2.3438 2.8438 5.3594 2.8438 9.0469s-0.94922 6.7031-2.8438 9.0469c-1.8984 2.3438-4.3203 3.5156-7.2656 3.5156-1.668 0-3.1406-0.33594-4.4219-1s-2.4492-1.6914-3.5-3.0781v3.4531h-7.6562v-33.234h7.6562z"/>
  </symbol>
  <symbol id="g" overflow="visible">
   <path d="m0.53125-23.922h7.6562l6.4219 16.234 5.4688-16.234h7.6562l-10.062 26.188c-1.0117 2.6641-2.1953 4.5234-3.5469 5.5781-1.3438 1.0625-3.1211 1.5938-5.3281 1.5938h-4.4219v-5.0156h2.3906c1.3008 0 2.2422-0.21094 2.8281-0.625 0.59375-0.40625 1.0547-1.1484 1.3906-2.2188l0.20312-0.65625z"/>
  </symbol>
  <symbol id="f" overflow="visible">
   <path d="m3.6719-33.234h7.6562v33.234h-7.6562z"/>
  </symbol>
  <symbol id="e" overflow="visible">
   <path d="m22.359-23.172v5.7969c-1.6367-0.67578-3.2148-1.1875-4.7344-1.5312-1.5234-0.34375-2.9609-0.51562-4.3125-0.51562-1.4609 0-2.543 0.18359-3.25 0.54688-0.69922 0.36719-1.0469 0.92188-1.0469 1.6719 0 0.61719 0.26562 1.0898 0.79688 1.4219 0.53125 0.32422 1.4883 0.5625 2.875 0.71875l1.3438 0.1875c3.9141 0.5 6.5508 1.3242 7.9062 2.4688 1.3516 1.1367 2.0312 2.9219 2.0312 5.3594 0 2.5547-0.94531 4.4688-2.8281 5.75-1.875 1.2812-4.6797 1.9219-8.4062 1.9219-1.5859 0-3.2188-0.125-4.9062-0.375s-3.4219-0.625-5.2031-1.125v-5.8125c1.5195 0.74219 3.082 1.2969 4.6875 1.6719 1.6016 0.36719 3.2344 0.54688 4.8906 0.54688 1.4883 0 2.6094-0.20312 3.3594-0.60938 0.75781-0.41406 1.1406-1.0312 1.1406-1.8438 0-0.6875-0.26172-1.1953-0.78125-1.5312-0.52344-0.33203-1.5586-0.59375-3.1094-0.78125l-1.3438-0.17188c-3.4062-0.42578-5.793-1.2109-7.1562-2.3594-1.3672-1.1562-2.0469-2.9102-2.0469-5.2656 0-2.5312 0.86719-4.4062 2.6094-5.625 1.7383-1.2266 4.3984-1.8438 7.9844-1.8438 1.4062 0 2.8828 0.10938 4.4375 0.32812 1.5508 0.21094 3.2383 0.54297 5.0625 1z"/>
  </symbol>
  <symbol id="k" overflow="visible">
   <path d="m11.328-3.4531v12.547h-7.6562v-33.016h7.6562v3.5c1.0508-1.3945 2.2188-2.4219 3.5-3.0781 1.2812-0.66406 2.7539-1 4.4219-1 2.9453 0 5.3672 1.1719 7.2656 3.5156 1.8945 2.3438 2.8438 5.3594 2.8438 9.0469s-0.94922 6.7031-2.8438 9.0469c-1.8984 2.3438-4.3203 3.5156-7.2656 3.5156-1.668 0-3.1406-0.33594-4.4219-1s-2.4492-1.6914-3.5-3.0781zm5.0781-15.5c-1.6367 0-2.8906 0.60547-3.7656 1.8125-0.875 1.1992-1.3125 2.9336-1.3125 5.2031 0 2.2617 0.4375 3.9961 1.3125 5.2031 0.875 1.1992 2.1289 1.7969 3.7656 1.7969 1.6328 0 2.8828-0.59766 3.75-1.7969 0.86328-1.1953 1.2969-2.9297 1.2969-5.2031 0-2.2812-0.43359-4.0195-1.2969-5.2188-0.86719-1.1953-2.1172-1.7969-3.75-1.7969z"/>
  </symbol>
  <symbol id="j" overflow="visible">
   <path d="m3.6719-33.234h7.6562v18.094l8.7969-8.7812h8.8906l-11.688 10.969 12.594 12.953h-9.2656l-9.3281-9.9688v9.9688h-7.6562z"/>
  </symbol>
 </defs>
 <g>
  <path d="m78.75 481.25c-4.8398 0-8.75-3.9102-8.75-8.75 0-43.426 35.324-78.75 78.75-78.75 4.8398 0 8.75 3.9102 8.75 8.75s-3.9102 8.75-8.75 8.75c-33.766 0-61.25 27.484-61.25 61.25 0 4.8398-3.9102 8.75-8.75 8.75z"/>
  <path d="m446.25 481.25c-4.8398 0-8.75-3.9102-8.75-8.75 0-33.766-27.484-61.25-61.25-61.25-4.8398 0-8.75-3.9102-8.75-8.75s3.9102-8.75 8.75-8.75c43.426 0 78.75 35.324 78.75 78.75 0 4.8398-3.9102 8.75-8.75 8.75z"/>
  <path d="m201.25 411.25h-52.5c-4.8398 0-8.75-3.9102-8.75-8.75s3.9102-8.75 8.75-8.75h52.5c4.8398 0 8.75 3.9102 8.75 8.75s-3.9102 8.75-8.75 8.75z"/>
  <path d="m376.25 411.25-52.5-0.015625c-4.8398 0-8.75-3.9219-8.75-8.75 0-4.8398 3.9219-8.75 8.75-8.75l52.5 0.015625c4.8398 0 8.75 3.9219 8.75 8.75 0 4.8398-3.9219 8.75-8.75 8.75z"/>
  <path d="m78.75 542.46c-4.8398 0-8.75-3.9102-8.75-8.75v-61.215c0-4.8398 3.9102-8.75 8.75-8.75s8.75 3.9102 8.75 8.75v61.215c0 4.8398-3.9102 8.75-8.75 8.75z"/>
  <path d="m446.25 542.46c-4.8398 0-8.75-3.9102-8.75-8.75v-61.215c0-4.8398 3.9102-8.75 8.75-8.75s8.75 3.9102 8.75 8.75v61.215c0 4.8398-3.9102 8.75-8.75 8.75z"/>
  <path d="m201.25 411.25c-4.8398 0-8.75-3.9102-8.75-8.75v-50.137c0-4.8398 3.9102-8.75 8.75-8.75s8.75 3.9102 8.75 8.75v50.137c0 4.8398-3.9102 8.75-8.75 8.75z"/>
  <path d="m323.75 411.23c-4.8398 0-8.75-3.9102-8.75-8.75v-50.121c0-4.8398 3.9102-8.75 8.75-8.75s8.75 3.9102 8.75 8.75v50.129c0 4.8281-3.9102 8.7422-8.75 8.7422z"/>
  <path d="m262.5 376.25c-77.191 0-140-62.809-140-140 0-4.8398 3.9102-8.75 8.75-8.75s8.75 3.9102 8.75 8.75c0 67.551 54.949 122.5 122.5 122.5s122.5-54.949 122.5-122.5c0-4.8398 3.9102-8.75 8.75-8.75s8.75 3.9102 8.75 8.75c0 77.191-62.809 140-140 140z"/>
  <path d="m131.25 245c-4.8398 0-8.75-3.9102-8.75-8.75v-96.266c0-4.8398 3.9102-8.75 8.75-8.75s8.75 3.9102 8.75 8.75v96.266c0 4.8398-3.9102 8.75-8.75 8.75z"/>
  <path d="m393.75 245c-4.8398 0-8.75-3.9102-8.75-8.75v-105c0-4.8398 3.9102-8.75 8.75-8.75s8.75 3.9102 8.75 8.75v105c0 4.8398-3.9102 8.75-8.75 8.75z"/>
  <path d="m393.75 140c-4.8398 0-8.75-3.9102-8.75-8.75 0-28.953-23.547-52.5-52.5-52.5-4.8398 0-8.75-3.9102-8.75-8.75s3.9102-8.75 8.75-8.75c38.598 0 70 31.402 70 70 0 4.8398-3.9102 8.75-8.75 8.75z"/>
  <path d="m332.5 78.75c-4.8398 0-8.75-3.9102-8.75-8.75v-43.766c0-4.8398 3.9102-8.75 8.75-8.75s8.75 3.9102 8.75 8.75v43.766c0 4.8398-3.9102 8.75-8.75 8.75z"/>
  <path d="m332.5 34.984h-87.5c-4.8398 0-8.75-3.9102-8.75-8.75s3.9102-8.75 8.75-8.75h87.5c4.8398 0 8.75 3.9102 8.75 8.75 0 4.8359-3.9102 8.75-8.75 8.75z"/>
  <path d="m131.25 148.73c-4.8398 0-8.75-3.9102-8.75-8.75 0-67.551 54.949-122.5 122.5-122.5 4.8398 0 8.75 3.9102 8.75 8.75s-3.9102 8.75-8.75 8.75c-57.898 0-105 47.102-105 105 0 4.8359-3.9102 8.75-8.75 8.75z"/>
  <path d="m393.75 192.48c-2.2383 0-4.4805-0.85938-6.1875-2.5625l-35-35c-3.4219-3.4219-3.4219-8.9531 0-12.371 3.4219-3.4219 8.9531-3.4219 12.371 0l35 35c3.4219 3.4219 3.4219 8.9531 0 12.371-1.7031 1.7031-3.9453 2.5625-6.1836 2.5625z"/>
  <path d="m262.5 183.73c-54.301 0-98.883-26.383-100.76-27.5-4.1406-2.4844-5.4766-7.8477-3-11.996 2.4766-4.1406 7.8242-5.4961 11.996-3.0195 0.42188 0.25391 42.445 25.008 91.754 25.008 49.305 0 91.332-24.754 91.754-25.008 4.1836-2.4766 9.5195-1.1211 11.996 3.0195 2.4766 4.1484 1.1367 9.5117-3 11.996-1.8594 1.1172-46.441 27.5-100.74 27.5z"/>
  <path d="m131.25 192.48c-2.2383 0-4.4805-0.85938-6.1875-2.5625-3.4219-3.4219-3.4219-8.9531 0-12.371l35-35c3.4219-3.4219 8.9531-3.4219 12.371 0 3.4219 3.4219 3.4219 8.9531 0 12.371l-35 35c-1.7031 1.7031-3.9453 2.5625-6.1836 2.5625z"/>
  <path d="m227.49 428.73c-1.6641 0-3.3516-0.48047-4.8477-1.4688l-26.25-17.484c-4.0156-2.6758-5.1094-8.1094-2.4219-12.137 2.6758-4.0234 8.0938-5.1094 12.137-2.4219l26.25 17.484c4.0156 2.6758 5.1094 8.1094 2.4219 12.137-1.6797 2.5234-4.4648 3.8906-7.2891 3.8906z"/>
  <path d="m227.51 428.73c-3.2109 0-6.3008-1.7656-7.8398-4.8398-2.1602-4.3242-0.41016-9.582 3.9102-11.742l35-17.5c4.3125-2.1445 9.5742-0.41016 11.742 3.9102 2.1602 4.3242 0.41016 9.582-3.9102 11.742l-35 17.5c-1.25 0.62891-2.5898 0.92969-3.9023 0.92969z"/>
  <path d="m297.51 428.73c-2.8281 0-5.6094-1.3633-7.2891-3.8945-2.6875-4.0234-1.5938-9.457 2.4219-12.137l26.25-17.484c4.0352-2.6875 9.4492-1.6016 12.137 2.4219s1.5938 9.457-2.4219 12.137l-26.25 17.484c-1.4961 0.98828-3.1836 1.4727-4.8477 1.4727z"/>
  <path d="m297.49 428.73c-1.3125 0-2.6523-0.29688-3.9023-0.91797l-35-17.5c-4.3242-2.1602-6.0742-7.4219-3.9102-11.742 2.1719-4.3242 7.4297-6.0547 11.742-3.9102l35 17.5c4.3242 2.1602 6.0742 7.4219 3.9102 11.742-1.5391 3.0586-4.6289 4.8281-7.8398 4.8281z"/>
  <path d="m262.76 463.73c-4.8398 0-8.793-3.9102-8.793-8.75s3.8672-8.75 8.6992-8.75h0.097656c4.8281 0 8.75 3.9102 8.75 8.75-0.003906 4.8359-3.9219 8.75-8.7539 8.75z"/>
  <path d="m262.76 507.48c-4.8398 0-8.793-3.9102-8.793-8.75s3.8672-8.75 8.6992-8.75h0.097656c4.8281 0 8.75 3.9102 8.75 8.75-0.003906 4.8359-3.9219 8.75-8.7539 8.75z"/>
  <path d="m393.75 507.48h-70c-4.8398 0-8.75-3.9102-8.75-8.75s3.9102-8.75 8.75-8.75h70c4.8398 0 8.75 3.9102 8.75 8.75 0 4.8359-3.9102 8.75-8.75 8.75z"/>
  <path d="m332.49 507.48c-1.8281 0-3.668-0.57031-5.2422-1.75-3.8672-2.8945-4.6562-8.3828-1.75-12.242l26.25-35c2.9062-3.8672 8.3828-4.6445 12.242-1.75 3.8672 2.8945 4.6562 8.3828 1.75 12.242l-26.25 35c-1.707 2.2891-4.332 3.5-7 3.5z"/>
  <path d="m385.01 507.48c-2.668 0-5.2852-1.207-7.0078-3.5l-26.25-35c-2.9062-3.8594-2.1172-9.3438 1.75-12.242 3.8594-2.9062 9.3359-2.125 12.242 1.75l26.25 35c2.9062 3.8594 2.1172 9.3438-1.75 12.242-1.5664 1.1797-3.4062 1.75-5.2344 1.75z"/>
  <path d="m551.21 350c-19.301 0-35-15.699-35-35s15.699-35 35-35c19.301 0 35 15.699 35 35s-15.699 35-35 35zm0-52.5c-9.6523 0-17.5 7.8477-17.5 17.5s7.8477 17.5 17.5 17.5 17.5-7.8477 17.5-17.5-7.8477-17.5-17.5-17.5z"/>
  <path d="m481.18 533.77c-1.0312 0-2.0898-0.18359-3.1133-0.57031-4.5156-1.7148-6.7734-6.7734-5.0586-11.297l70.016-183.77c1.7227-4.5156 6.7656-6.7969 11.297-5.0586 4.5156 1.7148 6.7734 6.7734 5.0586 11.297l-70.016 183.77c-1.3398 3.4883-4.6562 5.6289-8.1836 5.6289z"/>
  <path d="m481.18 542.52c-4.8398 0-8.75-3.9102-8.75-8.75v-78.82c0-4.8398 3.9102-8.75 8.75-8.75 4.8398 0 8.75 3.9102 8.75 8.75v78.82c0 4.8398-3.9102 8.75-8.75 8.75z"/>
  <path d="m621.25 533.77c-3.5156 0-6.8438-2.1445-8.1797-5.6367l-70.016-183.77c-1.7148-4.5234 0.55078-9.582 5.0586-11.297 4.5156-1.7422 9.5742 0.55078 11.297 5.0586l70.016 183.77c1.7148 4.5234-0.55078 9.582-5.0586 11.297-1.0273 0.39453-2.0859 0.57812-3.1172 0.57812z"/>
  <path d="m481.18 463.7c-1.0312 0-2.0898-0.18359-3.1133-0.57031-4.5156-1.7148-6.7734-6.7734-5.0586-11.297l47.922-125.8c1.7227-4.5156 6.7656-6.7969 11.297-5.0586 4.5156 1.7148 6.7734 6.7734 5.0586 11.297l-47.922 125.8c-1.3398 3.4844-4.6562 5.6289-8.1836 5.6289z"/>
  <path d="m621.25 463.7c-3.5156 0-6.8438-2.1445-8.1797-5.6367l-47.941-125.8c-1.7148-4.5234 0.55078-9.582 5.0586-11.297 4.5156-1.7422 9.5742 0.55078 11.297 5.0586l47.941 125.8c1.7148 4.5234-0.55078 9.582-5.0586 11.297-1.0273 0.40234-2.0859 0.57812-3.1172 0.57812z"/>
  <path d="m621.25 542.52c-4.8398 0-8.75-3.9102-8.75-8.75v-78.82c0-4.8398 3.9102-8.75 8.75-8.75s8.75 3.9102 8.75 8.75v78.82c0 4.8398-3.9102 8.75-8.75 8.75z"/>
  <path d="m551.21 297.5c-4.8398 0-8.75-3.9102-8.75-8.75v-35.016c0-4.8398 3.9102-8.75 8.75-8.75s8.75 3.9102 8.75 8.75v35.016c0 4.8398-3.9102 8.75-8.75 8.75z"/>
  <path d="m587.92 446.29h-73.422c-4.8398 0-8.75-3.9102-8.75-8.75s3.9102-8.75 8.75-8.75h73.422c4.8398 0 8.75 3.9102 8.75 8.75s-3.9102 8.75-8.75 8.75z"/>
  <path d="m551.38 323.77c-4.8398 0-8.793-3.9102-8.793-8.75s3.8672-8.75 8.6992-8.75h0.097657c4.8281 0 8.75 3.9102 8.75 8.75-0.003907 4.8398-3.9336 8.75-8.7539 8.75z"/>
  <path d="m551.2 454.98c-4.8398 0-8.75-3.9102-8.75-8.75v-17.5c0-4.8398 3.9102-8.75 8.75-8.75 4.8398 0 8.75 3.9102 8.75 8.75v17.5c0 4.8359-3.9141 8.75-8.75 8.75z"/>
  <use x="70" y="691.25" xlink:href="#l"/>
  <use x="102.109375" y="691.25" xlink:href="#d"/>
  <use x="123.683594" y="691.25" xlink:href="#c"/>
  <use x="153.355469" y="691.25" xlink:href="#a"/>
  <use x="182.878906" y="691.25" xlink:href="#b"/>
  <use x="203.792969" y="691.25" xlink:href="#c"/>
  <use x="233.464844" y="691.25" xlink:href="#i"/>
  <use x="280.011719" y="691.25" xlink:href="#h"/>
  <use x="311.328125" y="691.25" xlink:href="#g"/>
  <use x="355.078125" y="691.25" xlink:href="#f"/>
  <use x="370.078125" y="691.25" xlink:href="#a"/>
  <use x="399.597656" y="691.25" xlink:href="#e"/>
  <use x="425.640625" y="691.25" xlink:href="#b"/>
  <use x="446.554688" y="691.25" xlink:href="#e"/>
  <use x="472.59375" y="691.25" xlink:href="#k"/>
  <use x="503.910156" y="691.25" xlink:href="#a"/>
  <use x="533.433594" y="691.25" xlink:href="#d"/>
  <use x="555.007812" y="691.25" xlink:href="#j"/>
 </g>
</svg>
